<?xml version="1.0" encoding="utf-8"?>
<!-- Generator: Adobe Illustrator 24.2.1, SVG Export Plug-In . SVG Version: 6.00 Build 0)  -->
<svg version="1.1" id="Layer_1" xmlns="http://www.w3.org/2000/svg" xmlns:xlink="http://www.w3.org/1999/xlink" x="0px" y="0px"
	 width="91.46px" height="91.46px" viewBox="0 0 91.46 91.46" enable-background="new 0 0 91.46 91.46" xml:space="preserve">
<g>
	<g id="XMLID_145_">
		<g>
			<path d="M91.46,85.743v5.716h-5.716h-5.716h-5.716h-5.716h-5.716h-5.716h-5.716H45.73h-5.716h-5.716h-5.716h-5.716h-5.716h-5.716
				H5.716H0v-5.716v-5.716v-5.716v-5.716v-5.716v-5.716v-5.716V45.73v-5.716v-5.716v-5.716v-5.716v-5.716v-5.716V5.716V0h5.716
				h5.716h5.716h5.716h5.716h5.716h5.716h5.716h5.716h5.716h5.716h5.716h5.716h5.716h5.716h5.716v5.716v5.716v5.716v5.716v5.716
				v5.716v5.716v5.716v5.716v5.716v5.716v5.716v5.716v5.716V85.743z M80.027,51.446V45.73v-5.716v-5.716v-5.716v-5.716h-5.716
				v-5.716h-5.716h-5.716h-5.716h-5.716H45.73h-5.716h-5.716h-5.716h-5.716h-5.716v5.716h-5.716v5.716v5.716v5.716v5.716v5.716
				h5.716v5.716h5.716h5.716h5.716h5.716h5.716h5.716v5.716h5.716v5.716h5.716v5.716h5.716v-5.716v-5.716v-5.716h5.716v-5.716
				H80.027z"/>
			<polygon fill="#FFFFFF" points="80.027,45.73 80.027,51.446 74.311,51.446 74.311,57.162 68.595,57.162 68.595,62.878 
				68.595,68.595 68.595,74.311 62.878,74.311 62.878,68.595 57.162,68.595 57.162,62.878 51.446,62.878 51.446,57.162 
				45.73,57.162 40.014,57.162 34.297,57.162 28.581,57.162 22.865,57.162 17.149,57.162 17.149,51.446 11.432,51.446 11.432,45.73 
				11.432,40.014 11.432,34.297 11.432,28.581 11.432,22.865 17.149,22.865 17.149,17.149 22.865,17.149 28.581,17.149 
				34.297,17.149 40.014,17.149 45.73,17.149 51.446,17.149 57.162,17.149 62.878,17.149 68.595,17.149 74.311,17.149 
				74.311,22.865 80.027,22.865 80.027,28.581 80.027,34.297 80.027,40.014 			"/>
		</g>
	</g>
</g>
</svg>
