<svg id="Layer_1" data-name="Layer 1" xmlns="http://www.w3.org/2000/svg" width="32.265mm" height="32.265mm" viewBox="0 0 91.46 91.46"><polygon points="85.743 51.446 85.743 57.162 80.027 57.162 80.027 62.878 74.311 62.878 74.311 68.595 74.311 74.311 74.311 80.027 74.311 85.743 68.595 85.743 68.595 80.027 62.878 80.027 62.878 74.311 57.162 74.311 57.162 68.595 51.446 68.595 51.446 62.878 45.73 62.878 40.014 62.878 34.297 62.878 28.581 62.878 22.865 62.878 17.149 62.878 17.149 57.162 11.432 57.162 5.716 57.162 5.716 51.446 5.716 45.73 5.716 40.014 5.716 34.297 5.716 28.581 5.716 22.865 5.716 17.149 11.432 17.149 17.149 17.149 17.149 11.432 22.865 11.432 28.581 11.432 34.297 11.432 40.014 11.432 45.73 11.432 51.446 11.432 57.162 11.432 62.878 11.432 68.595 11.432 74.311 11.432 74.311 17.149 80.027 17.149 85.743 17.149 85.743 22.865 85.743 28.581 85.743 34.297 85.743 40.014 85.743 45.73 85.743 51.446" fill="#b2eaf9"/></svg>