<?xml version="1.0" encoding="utf-8"?>
<!-- Generator: Adobe Illustrator 24.2.1, SVG Export Plug-In . SVG Version: 6.00 Build 0)  -->
<svg version="1.1" id="Layer_1" xmlns="http://www.w3.org/2000/svg" xmlns:xlink="http://www.w3.org/1999/xlink" x="0px" y="0px"
	 width="91.46px" height="91.46px" viewBox="0 0 91.46 91.46" enable-background="new 0 0 91.46 91.46" xml:space="preserve">
<g>
	<g id="XMLID_137_">
		<g>
			<rect x="74.311" y="74.311" width="5.716" height="5.716"/>
			<rect x="74.311" y="11.432" width="5.716" height="5.716"/>
			<rect x="68.595" y="68.595" width="5.716" height="5.716"/>
			<rect x="68.595" y="17.149" width="5.716" height="5.716"/>
			<rect x="62.878" y="62.878" width="5.716" height="5.716"/>
			<rect x="62.878" y="22.865" width="5.716" height="5.716"/>
			<rect x="57.162" y="57.162" width="5.716" height="5.716"/>
			<rect x="57.162" y="28.581" width="5.716" height="5.716"/>
			<rect x="51.446" y="51.446" width="5.716" height="5.716"/>
			<rect x="51.446" y="34.297" width="5.716" height="5.716"/>
			<polygon points="51.446,45.73 51.446,51.446 45.73,51.446 40.014,51.446 40.014,45.73 40.014,40.014 45.73,40.014 51.446,40.014 
							"/>
			<rect x="34.297" y="51.446" width="5.716" height="5.716"/>
			<rect x="34.297" y="34.297" width="5.716" height="5.716"/>
			<rect x="28.581" y="57.162" width="5.716" height="5.716"/>
			<rect x="28.581" y="28.581" width="5.716" height="5.716"/>
			<rect x="22.865" y="62.878" width="5.716" height="5.716"/>
			<rect x="22.865" y="22.865" width="5.716" height="5.716"/>
			<rect x="17.149" y="68.595" width="5.716" height="5.716"/>
			<rect x="17.149" y="17.149" width="5.716" height="5.716"/>
			<rect x="11.432" y="74.311" width="5.716" height="5.716"/>
			<rect x="11.432" y="11.432" width="5.716" height="5.716"/>
		</g>
		<g>
		</g>
	</g>
</g>
</svg>
