<?xml version="1.0" encoding="utf-8"?>
<!-- Generator: Adobe Illustrator 24.2.1, SVG Export Plug-In . SVG Version: 6.00 Build 0)  -->
<svg version="1.1" id="Layer_1" xmlns="http://www.w3.org/2000/svg" xmlns:xlink="http://www.w3.org/1999/xlink" x="0px" y="0px"
	 width="91.96px" height="91.96px" viewBox="0 0 91.96 91.96" enable-background="new 0 0 91.96 91.96" xml:space="preserve">
<g>
	<g id="XMLID_166_">
		<g>
			<path d="M0.25,5.966V0.25h5.716h5.716h5.716h5.716h5.716h5.716h5.716h5.716h5.716h5.716h5.716h5.716h5.716h5.716h5.716h5.716
				v5.716v5.716v5.716v5.716v5.716v5.716v5.716v5.716v5.716v5.716v5.716v5.716v5.716v5.716v5.716v5.716h-5.716h-5.716h-5.716h-5.716
				h-5.716h-5.716h-5.716H45.98h-5.716h-5.716h-5.716h-5.716h-5.716h-5.716H5.966H0.25v-5.716v-5.716v-5.716v-5.716v-5.716v-5.716
				v-5.716V45.98v-5.716v-5.716v-5.716v-5.716v-5.716v-5.716V5.966z M11.682,23.115v5.716v5.716v5.716v5.716h5.716h5.716h5.716
				v-5.716v-5.716v-5.716h-5.716h-5.716v-5.716h5.716v-5.716h5.716v-5.716h-5.716v5.716h-5.716v5.716H11.682z M34.547,23.115v5.716
				v5.716v5.716v5.716h5.716h5.716h5.716v-5.716v-5.716v-5.716H45.98h-5.716v-5.716h5.716v-5.716h5.716v-5.716H45.98v5.716h-5.716
				v5.716H34.547z"/>
			<polygon fill="#FFFFFF" points="11.682,28.831 11.682,23.115 17.399,23.115 17.399,28.831 23.115,28.831 28.831,28.831 
				28.831,34.547 28.831,40.264 28.831,45.98 23.115,45.98 17.399,45.98 11.682,45.98 11.682,40.264 11.682,34.547 			"/>
			<rect x="17.399" y="17.399" fill="#FFFFFF" width="5.716" height="5.716"/>
			<rect x="23.115" y="11.682" fill="#FFFFFF" width="5.716" height="5.716"/>
			<polygon fill="#FFFFFF" points="34.547,28.831 34.547,23.115 40.264,23.115 40.264,28.831 45.98,28.831 51.696,28.831 
				51.696,34.547 51.696,40.264 51.696,45.98 45.98,45.98 40.264,45.98 34.547,45.98 34.547,40.264 34.547,34.547 			"/>
			<rect x="40.264" y="17.399" fill="#FFFFFF" width="5.716" height="5.716"/>
			<rect x="45.98" y="11.682" fill="#FFFFFF" width="5.716" height="5.716"/>
		</g>
	</g>
</g>
</svg>
