<?xml version="1.0" encoding="utf-8"?>
<!-- Generator: Adobe Illustrator 24.2.1, SVG Export Plug-In . SVG Version: 6.00 Build 0)  -->
<svg version="1.1" id="Layer_1" xmlns="http://www.w3.org/2000/svg" xmlns:xlink="http://www.w3.org/1999/xlink" x="0px" y="0px"
	 width="91.46px" height="91.46px" viewBox="0 0 91.46 91.46" enable-background="new 0 0 91.46 91.46" xml:space="preserve">
<g>
	<g id="XMLID_146_">
		<g>
			<path d="M91.46,85.743v5.716h-5.716h-5.716h-5.716h-5.716h-5.716h-5.716h-5.716H45.73h-5.716h-5.716h-5.716h-5.716h-5.716h-5.716
				H5.716H0v-5.716v-5.716v-5.716v-5.716v-5.716v-5.716v-5.716V45.73v-5.716v-5.716v-5.716v-5.716v-5.716v-5.716V5.716V0h5.716
				h5.716h5.716h5.716h5.716h5.716h5.716h5.716h5.716h5.716h5.716h5.716h5.716h5.716h5.716h5.716v5.716v5.716v5.716v5.716v5.716
				v5.716v5.716v5.716v5.716v5.716v5.716v5.716v5.716v5.716V85.743z M80.027,57.162v-5.716V45.73v-5.716v-5.716v-5.716h-5.716
				v-5.716h-5.716v-5.716h-5.716v-5.716h-5.716h-5.716H45.73h-5.716h-5.716h-5.716v5.716h-5.716v5.716h-5.716v5.716h-5.716v5.716
				v5.716v5.716v5.716v5.716v5.716h5.716v5.716h5.716v5.716h5.716v5.716h5.716h5.716h5.716h5.716h5.716h5.716v-5.716h-5.716h-5.716
				H45.73h-5.716h-5.716h-5.716v-5.716h-5.716v-5.716h-5.716v-5.716v-5.716V45.73v-5.716v-5.716v-5.716h5.716v-5.716h5.716v-5.716
				h5.716h5.716h5.716h5.716h5.716h5.716v5.716h5.716v5.716h5.716v5.716v5.716v5.716v5.716v5.716h-5.716h-5.716v-5.716h-5.716V45.73
				v-5.716v-5.716h-5.716v-5.716H45.73h-5.716v5.716h-5.716v5.716h-5.716v5.716v5.716v5.716h5.716v5.716h5.716h5.716v-5.716h5.716
				v-5.716h5.716v5.716h5.716v5.716h5.716h5.716v-5.716H80.027z"/>
			<polygon fill="#FFFFFF" points="80.027,51.446 80.027,57.162 74.311,57.162 74.311,51.446 74.311,45.73 74.311,40.014 
				74.311,34.297 74.311,28.581 80.027,28.581 80.027,34.297 80.027,40.014 80.027,45.73 			"/>
			<polygon fill="#FFFFFF" points="74.311,57.162 74.311,62.878 68.595,62.878 62.878,62.878 62.878,57.162 68.595,57.162 			"/>
			<rect x="68.595" y="22.865" fill="#FFFFFF" width="5.716" height="5.716"/>
			<rect x="62.878" y="17.149" fill="#FFFFFF" width="5.716" height="5.716"/>
			<polygon fill="#FFFDFF" points="62.878,74.311 62.878,80.027 57.162,80.027 51.446,80.027 45.73,80.027 40.014,80.027 
				34.297,80.027 28.581,80.027 28.581,74.311 34.297,74.311 40.014,74.311 45.73,74.311 51.446,74.311 57.162,74.311 			"/>
			<rect x="57.162" y="51.446" fill="#FFFFFF" width="5.716" height="5.716"/>
			<polygon fill="#FFFFFF" points="62.878,11.432 62.878,17.149 57.162,17.149 51.446,17.149 45.73,17.149 40.014,17.149 
				34.297,17.149 28.581,17.149 28.581,11.432 34.297,11.432 40.014,11.432 45.73,11.432 51.446,11.432 57.162,11.432 			"/>
			<polygon fill="#FFFFFF" points="57.162,45.73 57.162,51.446 51.446,51.446 51.446,45.73 51.446,40.014 51.446,34.297 
				57.162,34.297 57.162,40.014 			"/>
			<rect x="45.73" y="51.446" fill="#FFFFFF" width="5.716" height="5.716"/>
			<polygon points="51.446,45.73 51.446,51.446 45.73,51.446 45.73,57.162 40.014,57.162 34.297,57.162 34.297,51.446 34.297,45.73 
				34.297,40.014 40.014,40.014 40.014,34.297 45.73,34.297 51.446,34.297 51.446,40.014 			"/>
			<polygon fill="#FFFAFF" points="51.446,28.581 51.446,34.297 45.73,34.297 40.014,34.297 40.014,28.581 45.73,28.581 			"/>
			<polygon fill="#FFFFFF" points="45.73,57.162 45.73,62.878 40.014,62.878 34.297,62.878 34.297,57.162 40.014,57.162 			"/>
			<rect x="34.297" y="34.297" fill="#FFFFFF" width="5.716" height="5.716"/>
			<polygon fill="#FFFAFF" points="34.297,51.446 34.297,57.162 28.581,57.162 28.581,51.446 28.581,45.73 28.581,40.014 
				34.297,40.014 34.297,45.73 			"/>
			<rect x="22.865" y="68.595" fill="#FFFDFF" width="5.716" height="5.716"/>
			<rect x="22.865" y="17.149" fill="#FFFFFF" width="5.716" height="5.716"/>
			<rect x="17.149" y="62.878" fill="#FFFDFF" width="5.716" height="5.716"/>
			<rect x="17.149" y="22.865" fill="#FFFFFF" width="5.716" height="5.716"/>
			<polygon fill="#FFFFFF" points="17.149,57.162 17.149,62.878 11.432,62.878 11.432,57.162 11.432,51.446 11.432,45.73 
				11.432,40.014 11.432,34.297 11.432,28.581 17.149,28.581 17.149,34.297 17.149,40.014 17.149,45.73 17.149,51.446 			"/>
		</g>
	</g>
</g>
</svg>
