<?xml version="1.0" encoding="utf-8"?>
<!-- Generator: Adobe Illustrator 24.2.1, SVG Export Plug-In . SVG Version: 6.00 Build 0)  -->
<svg version="1.1" id="Layer_1" xmlns="http://www.w3.org/2000/svg" xmlns:xlink="http://www.w3.org/1999/xlink" x="0px" y="0px"
	 width="91.46px" height="91.46px" viewBox="0 0 91.46 91.46" enable-background="new 0 0 91.46 91.46" xml:space="preserve">
<g>
	<g id="XMLID_147_">
		<g>
			<path d="M91.46,85.743v5.716h-5.716h-5.716h-5.716h-5.716h-5.716h-5.716h-5.716H45.73h-5.716h-5.716h-5.716h-5.716h-5.716h-5.716
				H5.716H0v-5.716v-5.716v-5.716v-5.716v-5.716v-5.716v-5.716V45.73v-5.716v-5.716v-5.716v-5.716v-5.716v-5.716V5.716V0h5.716
				h5.716h5.716h5.716h5.716h5.716h5.716h5.716h5.716h5.716h5.716h5.716h5.716h5.716h5.716h5.716v5.716v5.716v5.716v5.716v5.716
				v5.716v5.716v5.716v5.716v5.716v5.716v5.716v5.716v5.716V85.743z M74.311,40.014v-5.716v-5.716v-5.716v-5.716h-5.716v-5.716
				h-5.716h-5.716h-5.716H45.73h-5.716h-5.716h-5.716h-5.716v5.716h-5.716v5.716v5.716v5.716v5.716h5.716v5.716h5.716h5.716h5.716
				v5.716v5.716v5.716v5.716v5.716v5.716v5.716h5.716h5.716h5.716h5.716h5.716v-5.716v-5.716h-5.716h-5.716h-5.716v-5.716h5.716
				h5.716v-5.716v-5.716h-5.716h-5.716v-5.716V45.73h5.716h5.716h5.716v-5.716H74.311z"/>
			<path fill="#FFFFFF" d="M74.311,34.297v5.716h-5.716v5.716h-5.716h-5.716h-5.716v5.716v5.716h5.716h5.716v5.716v5.716h-5.716
				h-5.716v5.716h5.716h5.716h5.716v5.716v5.716h-5.716h-5.716h-5.716H45.73h-5.716v-5.716v-5.716v-5.716v-5.716v-5.716v-5.716
				V45.73h-5.716h-5.716h-5.716v-5.716h-5.716v-5.716v-5.716v-5.716v-5.716h5.716v-5.716h5.716h5.716h5.716h5.716h5.716h5.716h5.716
				h5.716v5.716h5.716v5.716v5.716V34.297z M62.878,34.297v-5.716v-5.716h-5.716h-5.716H45.73h-5.716h-5.716h-5.716v5.716v5.716
				h5.716h5.716h5.716h5.716h5.716H62.878z"/>
			<polygon points="62.878,28.581 62.878,34.297 57.162,34.297 51.446,34.297 45.73,34.297 40.014,34.297 34.297,34.297 
				28.581,34.297 28.581,28.581 28.581,22.865 34.297,22.865 40.014,22.865 45.73,22.865 51.446,22.865 57.162,22.865 
				62.878,22.865 			"/>
		</g>
	</g>
</g>
</svg>
