<?xml version="1.0" encoding="utf-8"?>
<!-- Generator: Adobe Illustrator 24.2.1, SVG Export Plug-In . SVG Version: 6.00 Build 0)  -->
<svg version="1.1" id="Layer_1" xmlns="http://www.w3.org/2000/svg" xmlns:xlink="http://www.w3.org/1999/xlink" x="0px" y="0px"
	 width="91.459px" height="91.459px" viewBox="0 0 91.459 91.459" enable-background="new 0 0 91.459 91.459" xml:space="preserve">
<g>
	<g id="XMLID_144_">
		<g>
			<path d="M91.459,85.743v5.716h-5.716h-5.716h-5.716h-5.716h-5.716h-5.716h-5.716H45.73h-5.716h-5.716h-5.716h-5.716h-5.716
				h-5.716H5.716H0v-5.716v-5.716v-5.716v-5.716v-5.716v-5.716v-5.716V45.73v-5.716v-5.716v-5.716v-5.716v-5.716v-5.716V5.716V0
				h5.716h5.716h5.716h5.716h5.716h5.716h5.716h5.716h5.716h5.716h5.716h5.716h5.716h5.716h5.716h5.716v5.716v5.716v5.716v5.716
				v5.716v5.716v5.716v5.716v5.716v5.716v5.716v5.716v5.716v5.716V85.743z M85.743,80.027v-5.716h-5.716v-5.716h-5.716v-5.716
				h-5.716v-5.716h-5.716v-5.716V45.73h5.716v-5.716v-5.716v-5.716h-5.716v-5.716v-5.716h-5.716v-5.716h-5.716H45.73V5.716h-5.716
				h-5.716h-5.716v5.716h-5.716h-5.716v5.716h-5.716v5.716v5.716H5.716v5.716v5.716v5.716h5.716v5.716v5.716h5.716v5.716h5.716
				h5.716v5.716h5.716h5.716h5.716v-5.716h5.716h5.716v5.716h5.716v5.716h5.716v5.716h5.716v5.716h5.716v-5.716H85.743z"/>
			<polygon fill="#FFFFFF" points="85.743,74.311 85.743,80.027 80.027,80.027 80.027,85.743 74.311,85.743 74.311,80.027 
				68.594,80.027 68.594,74.311 62.878,74.311 62.878,68.594 57.162,68.594 57.162,62.878 51.446,62.878 45.73,62.878 45.73,57.162 
				51.446,57.162 57.162,57.162 57.162,51.446 57.162,45.73 62.878,45.73 62.878,51.446 62.878,57.162 68.594,57.162 68.594,62.878 
				74.311,62.878 74.311,68.594 80.027,68.594 80.027,74.311 			"/>
			<polygon fill="#FFFFFF" points="68.594,40.013 68.594,45.73 62.878,45.73 62.878,40.013 62.878,34.297 62.878,28.581 
				68.594,28.581 68.594,34.297 			"/>
			<polygon points="62.878,40.013 62.878,45.73 57.162,45.73 57.162,51.446 57.162,57.162 51.446,57.162 45.73,57.162 45.73,62.878 
				40.013,62.878 34.297,62.878 28.581,62.878 28.581,57.162 22.865,57.162 17.149,57.162 17.149,51.446 17.149,45.73 11.432,45.73 
				11.432,40.013 11.432,34.297 11.432,28.581 17.149,28.581 17.149,22.865 17.149,17.149 22.865,17.149 28.581,17.149 
				28.581,11.432 34.297,11.432 40.013,11.432 45.73,11.432 45.73,17.149 51.446,17.149 57.162,17.149 57.162,22.865 57.162,28.581 
				62.878,28.581 62.878,34.297 			"/>
			<polygon fill="#FFFFFF" points="62.878,22.865 62.878,28.581 57.162,28.581 57.162,22.865 57.162,17.149 62.878,17.149 			"/>
			<polygon fill="#FFFFFF" points="57.162,11.432 57.162,17.149 51.446,17.149 45.73,17.149 45.73,11.432 51.446,11.432 			"/>
			<polygon fill="#FFFFFF" points="45.73,62.878 45.73,68.594 40.013,68.594 34.297,68.594 28.581,68.594 28.581,62.878 
				34.297,62.878 40.013,62.878 			"/>
			<polygon fill="#FFFFFF" points="45.73,5.716 45.73,11.432 40.013,11.432 34.297,11.432 28.581,11.432 28.581,5.716 34.297,5.716 
				40.013,5.716 			"/>
			<polygon fill="#FFFFFF" points="28.581,57.162 28.581,62.878 22.865,62.878 17.149,62.878 17.149,57.162 22.865,57.162 			"/>
			<polygon fill="#FFFFFF" points="28.581,11.432 28.581,17.149 22.865,17.149 17.149,17.149 17.149,11.432 22.865,11.432 			"/>
			<polygon fill="#FFFFFF" points="17.149,51.446 17.149,57.162 11.432,57.162 11.432,51.446 11.432,45.73 17.149,45.73 			"/>
			<polygon fill="#FFFFFF" points="17.149,22.865 17.149,28.581 11.432,28.581 11.432,22.865 11.432,17.149 17.149,17.149 			"/>
			<polygon fill="#FFFFFF" points="11.432,40.013 11.432,45.73 5.716,45.73 5.716,40.013 5.716,34.297 5.716,28.581 11.432,28.581 
				11.432,34.297 			"/>
		</g>
	</g>
</g>
</svg>
