<svg id="Layer_1" data-name="Layer 1" xmlns="http://www.w3.org/2000/svg" width="32.265mm" height="32.265mm" viewBox="0 0 91.46 91.46"><polygon points="91.46 34.297 91.46 40.014 85.743 40.014 85.743 45.73 80.027 45.73 80.027 51.446 74.311 51.446 74.311 57.162 74.311 62.878 80.027 62.878 80.027 68.595 80.027 74.311 85.743 74.311 85.743 80.027 85.743 85.743 80.027 85.743 74.311 85.743 68.595 85.743 68.595 80.027 62.878 80.027 62.878 74.311 57.162 74.311 51.446 74.311 51.446 68.595 45.73 68.595 40.014 68.595 40.014 74.311 34.297 74.311 28.581 74.311 28.581 80.027 22.865 80.027 22.865 85.743 17.149 85.743 11.432 85.743 5.716 85.743 5.716 80.027 5.716 74.311 11.432 74.311 11.432 68.595 11.432 62.878 17.149 62.878 17.149 57.162 17.149 51.446 11.432 51.446 11.432 45.73 5.716 45.73 5.716 40.014 0 40.014 0 34.297 0 28.581 5.716 28.581 11.432 28.581 17.149 28.581 22.865 28.581 28.581 28.581 28.581 22.865 34.297 22.865 34.297 17.149 34.297 11.432 40.014 11.432 40.014 5.716 40.014 0 45.73 0 51.446 0 51.446 5.716 51.446 11.432 57.162 11.432 57.162 17.149 57.162 22.865 62.878 22.865 62.878 28.581 68.595 28.581 74.311 28.581 80.027 28.581 85.743 28.581 91.46 28.581 91.46 34.297" fill="#b2eaf9"/></svg>