<?xml version="1.0" encoding="utf-8"?>
<!-- Generator: Adobe Illustrator 24.2.1, SVG Export Plug-In . SVG Version: 6.00 Build 0)  -->
<svg version="1.1" id="Layer_1" xmlns="http://www.w3.org/2000/svg" xmlns:xlink="http://www.w3.org/1999/xlink" x="0px" y="0px"
	 width="91.46px" height="91.46px" viewBox="0 0 91.46 91.46" enable-background="new 0 0 91.46 91.46" xml:space="preserve">
<g>
	<g id="XMLID_182_">
		<g>
			<path d="M0,5.716V0h5.716h5.716h5.716h5.716h5.716h5.716h5.716h5.716h5.716h5.716h5.716h5.716h5.716h5.716h5.716h5.716v5.716
				v5.716v5.716v5.716v5.716v5.716v5.716v5.716v5.716v5.716v5.716v5.716v5.716v5.716v5.716v5.716h-5.716h-5.716h-5.716h-5.716
				h-5.716h-5.716h-5.716H45.73h-5.716h-5.716h-5.716h-5.716h-5.716h-5.716H5.716H0v-5.716v-5.716v-5.716v-5.716v-5.716v-5.716
				v-5.716V45.73v-5.716v-5.716v-5.716v-5.716v-5.716v-5.716V5.716z M11.432,34.297v5.716h5.716v5.716h5.716v5.716h5.716v5.716
				h5.716v-5.716V45.73h5.716h5.716h5.716h5.716v5.716v5.716v5.716v5.716v5.716h5.716h5.716h5.716v-5.716v-5.716v-5.716v-5.716
				V45.73v-5.716v-5.716h-5.716v-5.716h-5.716h-5.716h-5.716H45.73h-5.716h-5.716v-5.716v-5.716h-5.716v5.716h-5.716v5.716h-5.716
				v5.716H11.432z"/>
			<polygon fill="#FFFFFF" points="11.432,40.014 11.432,34.297 17.149,34.297 17.149,28.581 22.865,28.581 22.865,22.865 
				28.581,22.865 28.581,17.149 34.297,17.149 34.297,22.865 34.297,28.581 40.014,28.581 45.73,28.581 51.446,28.581 
				57.162,28.581 62.878,28.581 68.595,28.581 68.595,34.297 74.311,34.297 74.311,40.014 74.311,45.73 74.311,51.446 
				74.311,57.162 74.311,62.878 74.311,68.595 74.311,74.311 68.595,74.311 62.878,74.311 57.162,74.311 57.162,68.595 
				57.162,62.878 57.162,57.162 57.162,51.446 57.162,45.73 51.446,45.73 45.73,45.73 40.014,45.73 34.297,45.73 34.297,51.446 
				34.297,57.162 28.581,57.162 28.581,51.446 22.865,51.446 22.865,45.73 17.149,45.73 17.149,40.014 			"/>
		</g>
		<g>
		</g>
	</g>
</g>
</svg>
