<?xml version="1.0" encoding="utf-8"?>
<!-- Generator: Adobe Illustrator 24.2.1, SVG Export Plug-In . SVG Version: 6.00 Build 0)  -->
<svg version="1.1" id="Layer_1" xmlns="http://www.w3.org/2000/svg" xmlns:xlink="http://www.w3.org/1999/xlink" x="0px" y="0px"
	 width="91.96px" height="91.96px" viewBox="0 0 91.96 91.96" enable-background="new 0 0 91.96 91.96" xml:space="preserve">
<g>
	<g id="XMLID_178_">
		<g>
			<path d="M91.71,86v5.716h-5.716h-5.716h-5.716h-5.716h-5.716h-5.716h-5.716h-5.716h-5.716h-5.716h-5.716h-5.716h-5.716h-5.716
				H5.967H0.251V86v-5.716v-5.716v-5.716v-5.716v-5.716v-5.716v-5.716V40.27v-5.716v-5.716v-5.716v-5.716v-5.716V5.973V0.257h5.716
				h5.716h5.716h5.716h5.716h5.716h5.716h5.716h5.716h5.716h5.716h5.716h5.716h5.716h5.716h5.716v5.716v5.716v5.716v5.716v5.716
				v5.716v5.716v5.716v5.716v5.716v5.716v5.716v5.716v5.716V86z M80.278,68.851v-5.716v-5.716v-5.716h-5.716h-5.716h-5.716h-5.716
				h-5.716h-5.716h-5.716h-5.716v5.716v5.716v5.716h5.716h5.716h5.716h5.716h5.716h5.716h5.716H80.278z M80.278,40.27v-5.716v-5.716
				v-5.716h-5.716h-5.716h-5.716h-5.716h-5.716h-5.716h-5.716h-5.716v5.716v5.716v5.716h5.716h5.716h5.716h5.716h5.716h5.716h5.716
				H80.278z M28.832,68.851v-5.716v-5.716v-5.716h-5.716h-5.716h-5.716v5.716v5.716v5.716h5.716h5.716H28.832z M28.832,40.27v-5.716
				v-5.716v-5.716h-5.716h-5.716h-5.716v5.716v5.716v5.716h5.716h5.716H28.832z"/>
			<polygon fill="#FFFFFF" points="80.278,63.135 80.278,68.851 74.562,68.851 68.845,68.851 63.129,68.851 57.413,68.851 
				51.697,68.851 45.981,68.851 40.264,68.851 34.548,68.851 34.548,63.135 34.548,57.419 34.548,51.703 40.264,51.703 
				45.981,51.703 51.697,51.703 57.413,51.703 63.129,51.703 68.845,51.703 74.562,51.703 80.278,51.703 80.278,57.419 			"/>
			<polygon fill="#FFFFFF" points="80.278,34.554 80.278,40.27 74.562,40.27 68.845,40.27 63.129,40.27 57.413,40.27 51.697,40.27 
				45.981,40.27 40.264,40.27 34.548,40.27 34.548,34.554 34.548,28.838 34.548,23.122 40.264,23.122 45.981,23.122 51.697,23.122 
				57.413,23.122 63.129,23.122 68.845,23.122 74.562,23.122 80.278,23.122 80.278,28.838 			"/>
			<polygon fill="#FFFFFF" points="28.832,63.135 28.832,68.851 23.116,68.851 17.399,68.851 11.683,68.851 11.683,63.135 
				11.683,57.419 11.683,51.703 17.399,51.703 23.116,51.703 28.832,51.703 28.832,57.419 			"/>
			<polygon fill="#FFFFFF" points="28.832,34.554 28.832,40.27 23.116,40.27 17.399,40.27 11.683,40.27 11.683,34.554 
				11.683,28.838 11.683,23.122 17.399,23.122 23.116,23.122 28.832,23.122 28.832,28.838 			"/>
		</g>
		<g>
		</g>
	</g>
</g>
</svg>
