<?xml version="1.0" encoding="utf-8"?>
<!-- Generator: Adobe Illustrator 24.2.1, SVG Export Plug-In . SVG Version: 6.00 Build 0)  -->
<svg version="1.1" id="Layer_1" xmlns="http://www.w3.org/2000/svg" xmlns:xlink="http://www.w3.org/1999/xlink" x="0px" y="0px"
	 width="91.46px" height="91.46px" viewBox="0 0 91.46 91.46" enable-background="new 0 0 91.46 91.46" xml:space="preserve">
<g>
	<g id="XMLID_139_">
		<g>
			<polygon points="5.716,17.149 5.716,11.432 11.432,11.432 17.149,11.432 17.149,17.149 22.865,17.149 22.865,22.865 
				28.581,22.865 28.581,28.581 34.297,28.581 34.297,34.297 40.014,34.297 40.014,40.014 45.73,40.014 51.446,40.014 
				51.446,34.297 57.162,34.297 57.162,28.581 62.878,28.581 62.878,22.865 68.595,22.865 68.595,17.149 74.311,17.149 
				74.311,11.432 80.027,11.432 85.743,11.432 85.743,17.149 80.027,17.149 80.027,22.865 74.311,22.865 74.311,28.581 
				68.595,28.581 68.595,34.297 62.878,34.297 62.878,40.014 57.162,40.014 57.162,45.73 51.446,45.73 51.446,51.446 57.162,51.446 
				57.162,57.162 62.878,57.162 62.878,62.878 68.595,62.878 68.595,68.595 74.311,68.595 74.311,74.311 80.027,74.311 
				80.027,80.027 85.743,80.027 85.743,85.743 80.027,85.743 74.311,85.743 74.311,80.027 68.595,80.027 68.595,74.311 
				62.878,74.311 62.878,68.595 57.162,68.595 57.162,62.878 51.446,62.878 51.446,57.162 45.73,57.162 40.014,57.162 
				40.014,62.878 34.297,62.878 34.297,68.595 28.581,68.595 28.581,74.311 22.865,74.311 22.865,80.027 17.149,80.027 
				17.149,85.743 11.432,85.743 5.716,85.743 5.716,80.027 11.432,80.027 11.432,74.311 17.149,74.311 17.149,68.595 22.865,68.595 
				22.865,62.878 28.581,62.878 28.581,57.162 34.297,57.162 34.297,51.446 40.014,51.446 40.014,45.73 34.297,45.73 34.297,40.014 
				28.581,40.014 28.581,34.297 22.865,34.297 22.865,28.581 17.149,28.581 17.149,22.865 11.432,22.865 11.432,17.149 			"/>
		</g>
	</g>
</g>
</svg>
