<?xml version="1.0" encoding="utf-8"?>
<!-- Generator: Adobe Illustrator 24.2.1, SVG Export Plug-In . SVG Version: 6.00 Build 0)  -->
<svg version="1.1" id="Layer_1" xmlns="http://www.w3.org/2000/svg" xmlns:xlink="http://www.w3.org/1999/xlink" x="0px" y="0px"
	 width="91.46px" height="91.46px" viewBox="0 0 91.46 91.46" enable-background="new 0 0 91.46 91.46" xml:space="preserve">
<g>
	<g id="XMLID_159_">
		<g>
			<polygon fill="#B2EAF9" points="45.73,85.743 45.73,80.027 45.73,74.311 45.73,68.595 45.73,62.878 45.73,57.162 45.73,51.446 
				45.73,45.73 51.446,45.73 57.162,45.73 62.878,45.73 68.595,45.73 74.311,45.73 80.027,45.73 85.743,45.73 91.46,45.73 
				91.46,51.446 91.46,57.162 91.46,62.878 91.46,68.595 91.46,74.311 91.46,80.027 91.46,85.743 91.46,91.46 85.743,91.46 
				80.027,91.46 74.311,91.46 68.595,91.46 62.878,91.46 57.162,91.46 51.446,91.46 45.73,91.46 			"/>
			<polygon fill="#FD74B9" points="0,5.716 0,0 5.716,0 11.432,0 17.149,0 22.865,0 28.581,0 34.297,0 40.014,0 45.73,0 
				45.73,5.716 45.73,11.432 45.73,17.149 45.73,22.865 45.73,28.581 45.73,34.297 45.73,40.014 45.73,45.73 40.014,45.73 
				34.297,45.73 28.581,45.73 22.865,45.73 17.149,45.73 11.432,45.73 5.716,45.73 0,45.73 0,40.014 0,34.297 0,28.581 0,22.865 
				0,17.149 0,11.432 			"/>
			<polygon fill="#222082" points="45.73,5.716 45.73,0 51.446,0 57.162,0 62.878,0 68.595,0 74.311,0 80.027,0 85.743,0 91.46,0 
				91.46,5.716 91.46,11.432 91.46,17.149 91.46,22.865 91.46,28.581 91.46,34.297 91.46,40.014 91.46,45.73 85.743,45.73 
				80.027,45.73 74.311,45.73 68.595,45.73 62.878,45.73 57.162,45.73 51.446,45.73 45.73,45.73 45.73,40.014 45.73,34.297 
				45.73,28.581 45.73,22.865 45.73,17.149 45.73,11.432 			"/>
			<polygon fill="#7B8792" points="0,51.446 0,45.73 5.716,45.73 11.432,45.73 17.149,45.73 22.865,45.73 28.581,45.73 
				34.297,45.73 40.014,45.73 45.73,45.73 45.73,51.446 45.73,57.162 45.73,62.878 45.73,68.595 45.73,74.311 45.73,80.027 
				45.73,85.743 45.73,91.46 40.014,91.46 34.297,91.46 28.581,91.46 22.865,91.46 17.149,91.46 11.432,91.46 5.716,91.46 0,91.46 
				0,85.743 0,80.027 0,74.311 0,68.595 0,62.878 0,57.162 			"/>
		</g>
	</g>
</g>
</svg>
