<svg id="Layer_1" data-name="Layer 1" xmlns="http://www.w3.org/2000/svg" width="32.265mm" height="32.265mm" viewBox="0 0 91.46 91.46"><polygon points="68.595 45.73 68.595 51.446 62.878 51.446 62.878 45.73 62.878 40.014 62.878 34.297 68.595 34.297 68.595 40.014 68.595 45.73"/><polygon points="28.581 45.73 28.581 51.446 22.865 51.446 22.865 45.73 22.865 40.014 22.865 34.297 28.581 34.297 28.581 40.014 28.581 45.73"/><rect x="28.581" y="57.162" width="5.716" height="5.716"/><path d="M80.027,57.162v5.716H74.311V68.6H68.6v5.716H62.878v5.716h-34.3V74.311H22.865V68.6H17.149V62.878H11.432v-34.3h5.717V22.865h5.716V17.149h5.716V11.432h34.3v5.717H68.6v5.716h5.716v5.716h5.716V57.162ZM68.6,51.446V34.3H62.878V51.446ZM62.878,62.878V57.162H57.162v5.716H34.3V57.162H28.581v5.716H34.3V68.6H57.162V62.878Zm-34.3-11.432V34.3H22.865V51.446Z" fill="#fff"/><rect x="57.162" y="57.162" width="5.716" height="5.716"/><polygon points="40.014 62.878 45.73 62.878 51.446 62.878 57.162 62.878 57.162 68.595 51.446 68.595 45.73 68.595 40.014 68.595 34.297 68.595 34.297 62.878 40.014 62.878"/><path d="M91.46,85.743V91.46H0V0H91.46V85.743ZM80.027,62.878v-34.3H74.311V22.865H68.6V17.149H62.878V11.432h-34.3v5.717H22.865v5.716H17.149v5.716H11.432v34.3h5.717V68.6h5.716v5.716h5.716v5.716h34.3V74.311H68.6V68.6h5.716V62.878Z"/></svg>