<?xml version="1.0" encoding="utf-8"?>
<!-- Generator: Adobe Illustrator 24.2.1, SVG Export Plug-In . SVG Version: 6.00 Build 0)  -->
<svg version="1.1" id="Layer_1" xmlns="http://www.w3.org/2000/svg" xmlns:xlink="http://www.w3.org/1999/xlink" x="0px" y="0px"
	 width="91.96px" height="91.96px" viewBox="0 0 91.96 91.96" enable-background="new 0 0 91.96 91.96" xml:space="preserve">
<g>
	<g id="XMLID_176_">
		<g>
			<path d="M91.71,85.993v5.716h-5.716h-5.716h-5.716h-5.716h-5.716h-5.716h-5.716H45.98h-5.716h-5.716h-5.716h-5.716h-5.716h-5.716
				H5.966H0.25v-5.716v-5.716v-5.716v-5.716v-5.716v-5.716v-5.716V45.98v-5.716v-5.716v-5.716v-5.716v-5.716v-5.716V5.966V0.25
				h5.716h5.716h5.716h5.716h5.716h5.716h5.716h5.716h5.716h5.716h5.716h5.716h5.716h5.716h5.716h5.716v5.716v5.716v5.716v5.716
				v5.716v5.716v5.716v5.716v5.716v5.716v5.716v5.716v5.716v5.716V85.993z M85.993,40.264v-5.716h-5.716h-5.716h-5.716h-5.716
				v-5.716h-5.716v-5.716v-5.716h-5.716v-5.716H45.98h-5.716v5.716h-5.716v5.716v5.716h-5.716v5.716h-5.716h-5.716h-5.716H5.966
				v5.716h5.716v5.716h5.716v5.716h5.716v5.716h-5.716v5.716v5.716h-5.716v5.716v5.716h5.716h5.716h5.716v-5.716h5.716h5.716v-5.716
				h5.716h5.716v5.716h5.716h5.716v5.716h5.716h5.716h5.716v-5.716v-5.716h-5.716v-5.716v-5.716h-5.716v-5.716h5.716V45.98h5.716
				v-5.716H85.993z"/>
			<polygon fill="#FFFFFF" points="85.993,34.547 85.993,40.264 80.277,40.264 80.277,45.98 74.561,45.98 74.561,51.696 
				68.845,51.696 68.845,57.412 74.561,57.412 74.561,63.128 74.561,68.845 80.277,68.845 80.277,74.561 80.277,80.277 
				74.561,80.277 68.845,80.277 63.128,80.277 63.128,74.561 57.412,74.561 51.696,74.561 51.696,68.845 45.98,68.845 
				40.264,68.845 40.264,74.561 34.547,74.561 28.831,74.561 28.831,80.277 23.115,80.277 17.399,80.277 11.682,80.277 
				11.682,74.561 11.682,68.845 17.399,68.845 17.399,63.128 17.399,57.412 23.115,57.412 23.115,51.696 17.399,51.696 
				17.399,45.98 11.682,45.98 11.682,40.264 5.966,40.264 5.966,34.547 11.682,34.547 17.399,34.547 23.115,34.547 28.831,34.547 
				28.831,28.831 34.547,28.831 34.547,23.115 34.547,17.399 40.264,17.399 40.264,11.682 45.98,11.682 51.696,11.682 
				51.696,17.399 57.412,17.399 57.412,23.115 57.412,28.831 63.128,28.831 63.128,34.547 68.845,34.547 74.561,34.547 
				80.277,34.547 			"/>
		</g>
		<g>
		</g>
	</g>
</g>
</svg>
