<?xml version="1.0" encoding="utf-8"?>
<!-- Generator: Adobe Illustrator 24.2.1, SVG Export Plug-In . SVG Version: 6.00 Build 0)  -->
<svg version="1.1" id="Layer_1" xmlns="http://www.w3.org/2000/svg" xmlns:xlink="http://www.w3.org/1999/xlink" x="0px" y="0px"
	 width="91.96px" height="91.96px" viewBox="0 0 91.96 91.96" enable-background="new 0 0 91.96 91.96" xml:space="preserve">
<g>
	<g id="XMLID_163_">
		<g>
			<path d="M0.25,5.966V0.25h5.716h5.716h5.716h5.716h5.716h5.716h5.716h5.716h5.716h5.716h5.716h5.716h5.716h5.716h5.716h5.716
				v5.716v5.716v5.716v5.716v5.716v5.716v5.716v5.716v5.716v5.716v5.716v5.716v5.716v5.716v5.716v5.716h-5.716h-5.716h-5.716h-5.716
				h-5.716h-5.716h-5.716H45.98h-5.716h-5.716h-5.716h-5.716h-5.716h-5.716H5.966H0.25v-5.716v-5.716v-5.716v-5.716v-5.716v-5.716
				v-5.716V45.98v-5.716v-5.716v-5.716v-5.716v-5.716v-5.716V5.966z M5.966,40.264v5.716v5.716h5.716v5.716h5.716v5.716h5.716v5.716
				h5.716v-5.716h-5.716v-5.716h-5.716v-5.716h-5.716V45.98v-5.716h5.716v-5.716h5.716v-5.716h5.716v-5.716h-5.716v5.716h-5.716
				v5.716h-5.716v5.716H5.966z M63.128,23.115v5.716h5.716v5.716h5.716v5.716h5.716v5.716v5.716h-5.716v5.716h-5.716v5.716h-5.716
				v5.716h5.716v-5.716h5.716v-5.716h5.716v-5.716h5.716V45.98v-5.716h-5.716v-5.716h-5.716v-5.716h-5.716v-5.716H63.128z"/>
			<polygon fill="#FFFFFF" points="5.966,45.98 5.966,40.264 11.682,40.264 11.682,45.98 11.682,51.696 5.966,51.696 			"/>
			<rect x="11.682" y="34.547" fill="#FFFFFF" width="5.716" height="5.716"/>
			<rect x="11.682" y="51.696" fill="#FFFFFF" width="5.716" height="5.716"/>
			<rect x="17.399" y="28.831" fill="#FFFFFF" width="5.716" height="5.716"/>
			<rect x="17.399" y="57.412" fill="#FFFFFF" width="5.716" height="5.716"/>
			<rect x="23.115" y="23.115" fill="#FFFFFF" width="5.716" height="5.716"/>
			<rect x="23.115" y="63.128" fill="#FFFFFF" width="5.716" height="5.716"/>
			<rect x="63.128" y="23.115" fill="#FFFFFF" width="5.716" height="5.716"/>
			<rect x="63.128" y="63.128" fill="#FFFFFF" width="5.716" height="5.716"/>
			<rect x="68.845" y="28.831" fill="#FFFFFF" width="5.716" height="5.716"/>
			<rect x="68.845" y="57.412" fill="#FFFFFF" width="5.716" height="5.716"/>
			<rect x="74.561" y="34.547" fill="#FFFFFF" width="5.716" height="5.716"/>
			<rect x="74.561" y="51.696" fill="#FFFFFF" width="5.716" height="5.716"/>
			<polygon fill="#FFFFFF" points="80.277,45.98 80.277,40.264 85.993,40.264 85.993,45.98 85.993,51.696 80.277,51.696 			"/>
		</g>
	</g>
</g>
</svg>
