<?xml version="1.0" encoding="utf-8"?>
<!-- Generator: Adobe Illustrator 24.2.1, SVG Export Plug-In . SVG Version: 6.00 Build 0)  -->
<svg version="1.1" id="Layer_1" xmlns="http://www.w3.org/2000/svg" xmlns:xlink="http://www.w3.org/1999/xlink" x="0px" y="0px"
	 width="91.96px" height="91.96px" viewBox="0 0 91.96 91.96" enable-background="new 0 0 91.96 91.96" xml:space="preserve">
<g>
	<g id="XMLID_170_">
		<g>
			<path d="M0.25,5.966V0.25h5.716h5.716h5.716h5.716h5.716h5.716h5.716h5.716h5.716h5.716h5.716h5.716h5.716h5.716h5.716h5.716
				v5.716v5.716v5.716v5.716v5.716v5.716v5.716v5.716v5.716v5.716v5.716v5.716v5.716v5.716v5.716v5.716h-5.716h-5.716h-5.716h-5.716
				h-5.716h-5.716h-5.716H45.98h-5.716h-5.716h-5.716h-5.716h-5.716h-5.716H5.966H0.25v-5.716v-5.716v-5.716v-5.716v-5.716v-5.716
				v-5.716V45.98v-5.716v-5.716v-5.716v-5.716v-5.716v-5.716V5.966z M17.399,68.845v5.716v5.716h5.716h5.716h5.716h5.716h5.716
				h5.716h5.716h5.716h5.716h5.716v-5.716v-5.716h-5.716h-5.716h-5.716h-5.716H45.98h-5.716h-5.716h-5.716h-5.716H17.399z
				 M23.115,28.831v5.716h5.716h5.716v5.716v5.716v5.716v5.716h5.716h5.716h5.716h5.716v-5.716V45.98v-5.716v-5.716h5.716h5.716
				v-5.716h-5.716v-5.716h-5.716v-5.716h-5.716v-5.716H45.98h-5.716v5.716h-5.716v5.716h-5.716v5.716H23.115z"/>
			<polygon fill="#FFFFFF" points="17.399,74.561 17.399,68.845 23.115,68.845 28.831,68.845 34.547,68.845 40.264,68.845 
				45.98,68.845 51.696,68.845 57.412,68.845 63.128,68.845 68.845,68.845 74.561,68.845 74.561,74.561 74.561,80.277 
				68.845,80.277 63.128,80.277 57.412,80.277 51.696,80.277 45.98,80.277 40.264,80.277 34.547,80.277 28.831,80.277 
				23.115,80.277 17.399,80.277 			"/>
			<polygon fill="#FFFFFF" points="23.115,34.547 23.115,28.831 28.831,28.831 28.831,23.115 34.547,23.115 34.547,17.399 
				40.264,17.399 40.264,11.682 45.98,11.682 51.696,11.682 51.696,17.399 57.412,17.399 57.412,23.115 63.128,23.115 
				63.128,28.831 68.845,28.831 68.845,34.547 63.128,34.547 57.412,34.547 57.412,40.264 57.412,45.98 57.412,51.696 
				57.412,57.412 51.696,57.412 45.98,57.412 40.264,57.412 34.547,57.412 34.547,51.696 34.547,45.98 34.547,40.264 34.547,34.547 
				28.831,34.547 			"/>
		</g>
	</g>
</g>
</svg>
